<svg xmlns="http://www.w3.org/2000/svg" width="192" height="192"><svg width="192" height="192" viewBox="0 0 192 192" fill="none" xmlns="http://www.w3.org/2000/svg"><path d="M81.341 38.734c6.07-11.895 23.04-11.895 29.111 0l7.684 15.057a16.349 16.349 0 0 0 11.992 8.719l16.651 2.648c13.19 2.098 18.439 18.294 8.994 27.75l-11.882 11.898a16.39 16.39 0 0 0-4.59 14.135l2.624 16.635c2.083 13.202-11.651 23.206-23.548 17.154l-15.078-7.671a16.327 16.327 0 0 0-14.805 0l-15.078 7.671c-11.897 6.052-25.63-3.952-23.548-17.154l2.624-16.635a16.39 16.39 0 0 0-4.59-14.135L36.02 92.909c-9.445-9.457-4.196-25.653 8.993-27.751l16.652-2.648a16.348 16.348 0 0 0 11.992-8.719l7.684-15.057Z" fill="#FFE550"/><path fill-rule="evenodd" clip-rule="evenodd" d="M96 192c53.019 0 96-42.981 96-96 0-53.02-42.981-96-96-96C42.98 0 0 42.98 0 96c0 53.019 42.98 96 96 96Zm0-10.233c47.393 0 85.783-38.415 85.783-85.767S143.393 10.233 96 10.233 10.217 48.648 10.217 96 48.607 181.767 96 181.767Z" fill="#BBF330"/></svg><style>@media (prefers-color-scheme:light){:root{filter:none}}@media (prefers-color-scheme:dark){:root{filter:none}}</style></svg>