<svg xmlns="http://www.w3.org/2000/svg" aria-hidden="true" style="width:0;height:0;position:absolute;overflow:hidden"><defs><symbol id="icon-logo" viewBox="0 0 41 32"><path fill="#ffe550" d="M14.143 6.455c1.01-1.982 3.836-1.982 4.846 0l1.28 2.51a2.729 2.729 0 0 0 1.98 1.45l.016.002 2.772.442c2.196.35 3.07 3.049 1.497 4.625l-1.978 1.983a2.725 2.725 0 0 0-.763 2.372l-.002-.016.437 2.773c.346 2.2-1.94 3.868-3.92 2.858l-2.511-1.278c-.358-.186-.783-.296-1.232-.296s-.874.109-1.247.303l.015-.007-2.511 1.278c-1.98 1.009-4.267-.658-3.92-2.858l.437-2.773a2.725 2.725 0 0 0-.765-2.356l-1.978-1.983c-1.572-1.576-.698-4.276 1.497-4.625l2.772-.441a2.73 2.73 0 0 0 1.989-1.438l.007-.015 1.28-2.51z" style="fill:var(--color1,#ffe550)"/><path fill="#2c2c2c" d="m1.116 20.357-.021.005a76.868 76.868 0 0 0-.013 1.932c0 .157-.004.285-.01.384l.001.336c0 .104-.007.207-.021.308l.001-.012-.018.206c-.014.13-.042.201-.084.211-.092.022-.235-.049-.431-.212-.197-.17-.31-.319-.34-.447s-.038-1.06-.023-2.798c.021-1.74-.026-2.884-.14-3.433a.412.412 0 0 1 .014-.274l-.001.003c.036-.166.219-.321.55-.467.338-.147.843-.3 1.514-.459.678-.16 1.216-.25 1.614-.27.405-.021.623.032.652.16.021.085-.025.159-.137.223s-.211.117-.298.16c.121-.039.006.008-.109.054l-.239.085c-.145.049-.279.096-.403.14-.126.037-.288.09-.488.16-.193.068-.372.133-.536.194-.166.054-.39.133-.671.237s-.463.17-.546.197c.012.02.023.05.033.093.079.332.122 1.13.129 2.392a10.72 10.72 0 0 0 1.402-.366c.498-.162.804-.257.917-.284.269-.063.416-.039.443.074.052.22-.212.476-.791.77a8.607 8.607 0 0 1-1.95.697zm6.917-1.951a2.018 2.018 0 0 0-.282-.66l.005.008c-.13-.201-.281-.334-.452-.398-.455.25-.786.729-.992 1.435-.201.698-.236 1.319-.108 1.865s.343.854.644.924c.485-.219.834-.668 1.046-1.346.218-.687.265-1.297.139-1.828zm-2.764.755c.117-.611.33-1.14.642-1.588.318-.457.684-.734 1.102-.833.423-.1.819-.003 1.187.291.366.287.61.689.732 1.206.121.51.121 1.063.001 1.66a3.783 3.783 0 0 1-.72 1.58l.006-.009c-.349.449-.767.731-1.254.846-.361.086-.7-.01-1.019-.286s-.538-.669-.658-1.179c-.123-.517-.129-1.08-.019-1.689zm7.564-1.891a2.018 2.018 0 0 0-.282-.66l.005.008c-.129-.201-.281-.334-.452-.398-.455.25-.786.728-.992 1.434-.201.698-.236 1.32-.107 1.865.129.546.343.854.643.925.486-.22.834-.668 1.047-1.347.218-.687.265-1.296.138-1.828zm-2.763.755a4.1 4.1 0 0 1 .642-1.588c.318-.457.684-.734 1.102-.833.423-.1.82-.004 1.188.291.366.287.61.689.732 1.206.121.51.121 1.063.001 1.66a3.78 3.78 0 0 1-.72 1.579l.006-.009c-.349.449-.767.731-1.254.847-.361.085-.7-.01-1.018-.286s-.538-.669-.659-1.178c-.122-.517-.129-1.08-.019-1.689zm7.769-6.987c.113-.027.276.047.489.221.218.165.349.34.392.524s.079.729.107 1.634c.026.898.031 1.836.015 2.812-.02 2.188-.111 3.301-.273 3.34-.098.023-.223-.011-.371-.103-.143-.101-.226-.197-.247-.289s-.041-.282-.057-.57c-.524.872-1.045 1.369-1.561 1.491-.311.074-.626-.001-.948-.225-.314-.225-.508-.489-.579-.794-.105-.439-.111-.986-.02-1.644a5.612 5.612 0 0 1 .651-1.929l-.015.028c.327-.601.742-.961 1.243-1.079.502-.119.923.099 1.263.654.006-1.586-.077-2.818-.247-3.698-.05-.212.002-.337.158-.374zm.068 5.49c-.091-.382-.234-.689-.431-.919-.188-.232-.375-.326-.559-.282-.303.072-.57.333-.799.783a4.554 4.554 0 0 0-.454 1.452l-.003.024c-.07.525-.063.964.021 1.318a.398.398 0 0 0 .208.275l.002.001a.493.493 0 0 0 .359.038l-.004.001c.276-.065.599-.351.972-.858a3.581 3.581 0 0 0 .696-1.646l.002-.135-.012-.052zm6.764-.636c.137.581-.009 1.131-.438 1.652a3.021 3.021 0 0 1-1.663 1.01c-.671.159-1.266.117-1.786-.127-.522-.25-.819-.532-.892-.843-.051-.212-.012-.334.115-.364.113-.027.375.09.788.352.156.09.352.163.589.219.244.055.486.054.726-.004a2.37 2.37 0 0 0 1.223-.693c.329-.347.457-.669.387-.966-.045-.191-.23-.406-.554-.643a7.357 7.357 0 0 0-1.004-.619l-.042-.02a8.232 8.232 0 0 1-1.061-.677l.021.015c-.326-.244-.511-.455-.553-.632a1.669 1.669 0 0 1-.027-.596l-.001.009c.024-.215.068-.378.13-.49.203-.37.564-.751 1.083-1.143.526-.394.987-.638 1.383-.731a.738.738 0 0 1 .57.081l-.003-.002c.174.101.278.226.313.374.017.071-.044.145-.182.223s-.351.188-.638.33a5.125 5.125 0 0 0-.757.433l.017-.011c-.738.505-1.074.901-1.005 1.191.037.156.553.494 1.548 1.013.414.221.77.474 1.091.767l-.004-.004c.346.3.555.598.625.895zm2.433.534c.032.135.126.183.281.147.268-.064.575-.215.922-.454.351-.247.548-.377.591-.386.127-.03.207.022.239.156.048.206-.108.493-.468.862-.353.368-.703.593-1.049.674-.339.08-.644.055-.913-.075-.271-.138-.43-.306-.477-.505a2.988 2.988 0 0 1-.051-.783c.011-.332.035-.767.071-1.307.042-.548.07-1 .082-1.354-.314.156-.527.248-.64.274s-.239-.003-.379-.09c-.134-.095-.214-.196-.239-.302-.04-.17.381-.442 1.262-.815a7.711 7.711 0 0 0-.178-1.606c-.05-.212-.005-.335.137-.369.12-.028.287.015.5.129.212.106.34.255.385.447s.065.542.058 1.052c.394-.131.711-.225.951-.281.425-.101.658-.058.702.126.025.106-.071.222-.287.348-.209.124-.663.348-1.363.67-.016.594-.052 1.28-.107 2.055-.057.769-.067 1.231-.03 1.386zm4.735-5.562c.318-.075.649.018.995.281.343.255.546.513.608.775.06.255.034.538-.079.849.11.086.174.167.193.246.047.198.081.549.103 1.052.03.502.051.829.065.983.021.152.036.276.043.371.006.089.009.177.007.268.014.183-.029.287-.128.311-.127.03-.258-.055-.396-.254a3.191 3.191 0 0 1-.343-.838c-.44.949-.928 1.487-1.465 1.614-.325.077-.679.015-1.062-.186-.378-.209-.602-.463-.672-.761-.1-.425-.069-.986.095-1.682.173-.744.452-1.4.826-1.99l-.015.026c.379-.606.788-.96 1.225-1.065zm.929 1.754c-.156-.658-.364-.957-.626-.895-.275.065-.55.34-.823.823a5.777 5.777 0 0 0-.61 1.508l-.009.041c-.137.556-.171.979-.103 1.27a.373.373 0 0 0 .217.261l.002.001a.6.6 0 0 0 .374.023c.332-.079.654-.39.965-.935a3.83 3.83 0 0 0 .48-1.852c-.004-.111.041-.189.135-.234l-.002-.01z" style="fill:var(--color2,#2c2c2c)"/><path fill="#bbf330" d="M30.759 19.973a.913.913 0 0 0-.641.602c-1.906 5.649-7.244 9.719-13.535 9.719-3.815 0-7.28-1.496-9.841-3.934a.91.91 0 0 0-.852-.231l.006-.001c-.639.158-.88.935-.406 1.392a15.864 15.864 0 0 0 11.072 4.481h.021-.001c7.078 0 13.081-4.606 15.182-10.986.206-.626-.368-1.199-1.006-1.041zM1.866 14.15a.908.908 0 0 0 .664-.719l.001-.005C3.742 6.761 9.57 1.706 16.582 1.706a14.25 14.25 0 0 1 11.232 5.465.903.903 0 0 0 .923.328c.583-.145.847-.825.478-1.301C26.291 2.428 21.72 0 16.581 0 8.7 0 2.151 5.711.839 13.225c-.103.593.445 1.07 1.028.926zm38.749-8.818c-3.777 7.241-5.435 2.465-10.753 5.27.532-8.405 6.163-3.291 10.753-5.27z" style="fill:var(--color3,#bbf330)"/></symbol><symbol id="icon-menu" viewBox="0 0 32 32"><path d="M2.666 8A1.335 1.335 0 0 1 4 6.666h24A1.33 1.33 0 0 1 29.333 8 1.333 1.333 0 0 1 28 9.334H4A1.335 1.335 0 0 1 2.666 8zm0 8.043A1.33 1.33 0 0 1 4 14.71h24a1.333 1.333 0 1 1 0 2.666H4a1.333 1.333 0 0 1-1.334-1.333zM4 22.752a1.337 1.337 0 0 0-1.334 1.333A1.33 1.33 0 0 0 4 25.418h24a1.333 1.333 0 1 0 0-2.666H4z"/></symbol><symbol id="icon-deliv" viewBox="0 0 32 32"><path fill="#fff" style="fill:var(--color1,#fff)" d="M32 16c0 8.837-7.163 16-16 16S0 24.837 0 16 7.163 0 16 0s16 7.163 16 16z"/><path fill="#7eb101" style="fill:var(--color2,#7eb101)" d="m9.489 14.422 2.356 1c.267-.533.552-1.059.856-1.578s.626-1.015.967-1.489l-1.756-.356-2.422 2.422zm3.422 1.8 2.956 2.956c.844-.385 1.637-.822 2.378-1.311s1.341-.963 1.8-1.422c1.2-1.2 2.081-2.43 2.644-3.689s.867-2.682.911-4.267c-1.585.044-3.007.348-4.267.911s-2.489 1.444-3.689 2.644c-.459.459-.933 1.059-1.422 1.8s-.926 1.533-1.311 2.378zM18 14.089c-.296-.296-.444-.663-.444-1.1s.148-.804.444-1.1c.296-.296.663-.444 1.1-.444s.804.148 1.1.444c.296.296.444.663.444 1.1s-.148.804-.444 1.1c-.296.296-.663.444-1.1.444s-.804-.148-1.1-.444zm-.333 8.511 2.422-2.422-.356-1.756c-.474.341-.97.663-1.489.967s-1.044.589-1.578.856l1 2.356zm7.244-15.422c.133 2.015-.119 3.852-.756 5.511s-1.689 3.222-3.156 4.689l-.089.089.489 2.444c.044.222.033.437-.033.644s-.181.393-.344.556l-3.8 3.822-1.889-4.4-3.778-3.778-4.4-1.889 3.822-3.8c.163-.163.348-.278.556-.344s.422-.078.644-.033l2.444.489c.015-.015.03-.026.044-.033s.03-.019.044-.033c1.467-1.467 3.03-2.522 4.689-3.167s3.496-.9 5.511-.767zM8.644 19.444c.518-.519 1.152-.781 1.9-.789s1.381.248 1.9.767c.518.518.774 1.152.767 1.9s-.27 1.381-.789 1.9c-.385.385-.981.704-1.789.956s-2.019.489-3.633.711c.222-1.615.456-2.83.7-3.644s.559-1.415.944-1.8zm.934.956c-.207.222-.393.57-.556 1.044s-.304 1.081-.422 1.822c.741-.118 1.348-.259 1.822-.422s.822-.348 1.044-.556c.281-.252.426-.567.433-.944s-.122-.707-.389-.989c-.282-.267-.611-.396-.989-.389s-.693.152-.944.433z"/></symbol><symbol id="icon-order" viewBox="0 0 32 32"><path fill="#fff" style="fill:var(--color1,#fff)" d="M32 16c0 8.837-7.163 16-16 16S0 24.837 0 16 7.163 0 16 0s16 7.163 16 16z"/><path fill="#7eb101" style="fill:var(--color2,#7eb101)" d="M15.667 6.222c1.348 0 2.5.47 3.456 1.411s1.433 2.085 1.433 3.433c0 .77-.167 1.496-.5 2.178s-.804 1.259-1.411 1.733h-.756v-1.111c.43-.341.759-.756.989-1.244s.344-1.007.344-1.556c0-.978-.348-1.807-1.044-2.489s-1.533-1.022-2.511-1.022c-.978 0-1.815.341-2.511 1.022s-1.044 1.511-1.044 2.489c0 .548.115 1.067.344 1.556s.559.904.989 1.244v1.6c-.83-.43-1.481-1.037-1.956-1.822s-.711-1.644-.711-2.578c0-1.348.478-2.493 1.433-3.433s2.107-1.411 3.456-1.411zm-.845 18.667c-.252 0-.489-.048-.711-.144s-.415-.226-.578-.389l-4.578-4.578 1.244-1.289c.207-.207.441-.367.7-.478s.53-.13.811-.056l1.733.4v-7.244c0-.622.215-1.148.644-1.578s.956-.644 1.578-.644c.622 0 1.148.215 1.578.644s.644.956.644 1.578v3.822h.578c.074 0 .141.015.2.044s.126.059.2.089l3.289 1.6c.356.163.619.426.789.789s.219.737.144 1.122l-.8 4.844c-.074.43-.281.781-.622 1.056s-.726.411-1.156.411H14.82zm-.177-1.333h6.244l.956-5.533-4.067-2.022h-1.222v-4.889c0-.267-.081-.481-.244-.644s-.378-.244-.644-.244-.482.081-.644.244c-.163.163-.244.378-.244.644v8.867l-3.422-.733-.511.511 3.8 3.8zm6.244 0z"/></symbol><symbol id="icon-chevron"><path d="M9.595 6.873a.395.395 0 0 1 0 .558L5.567 11.46a.395.395 0 0 1-.559 0l-.186-.186a.395.395 0 0 1 0-.56l3.562-3.561L4.822 3.59a.395.395 0 0 1 0-.559l.186-.186a.395.395 0 0 1 .56 0l4.027 4.028Z"/></symbol><symbol id="close" viewBox="0 0 32 32"><path d="m26.667 7.303-1.97-1.97-7.808 7.808-7.808-7.808-1.97 1.97 7.808 7.808-7.808 7.808 1.97 1.97 7.808-7.808 7.808 7.808 1.97-1.97-7.808-7.808 7.808-7.808z"/></symbol><symbol id="form-error" viewBox="0 0 32 32"><path fill="none" stroke="#ff705d" stroke-linejoin="round" stroke-linecap="round" stroke-width="2.286" d="M16 11.429v6.857M16.002 26.286a1.143 1.143 0 1 0 0-2.287 1.143 1.143 0 0 0 0 2.287z"/><path fill="none" stroke="#ff705d" stroke-linejoin="round" stroke-linecap="round" stroke-width="2.286" d="M18.036 2.4a2.286 2.286 0 0 0-4.068 0L1.397 27.543a2.281 2.281 0 0 0 .094 2.224 2.287 2.287 0 0 0 1.941 1.09h25.143a2.28 2.28 0 0 0 1.941-1.09 2.292 2.292 0 0 0 .093-2.224L18.038 2.4z"/></symbol><symbol id="icon-close-icon-mob" viewBox="0 0 32 32"><path d="M19.141 16.123 29.818 5.456a2.195 2.195 0 0 0-3.101-3.094l.002-.002-10.675 10.56L5.297 2.181a2.197 2.197 0 0 0-3.093 3.096l-.003-.003 10.72 10.845L2.422 26.482a2.191 2.191 0 0 0 2.399 3.64l-.012.006c.28-.138.517-.323.71-.546l.002-.003L15.998 19.11l10.413 10.403a2.2 2.2 0 0 0 3.093-3.097l.003.004-10.368-10.296z"/></symbol><symbol id="icon-stars" viewBox="0 0 202 32"><path fill="#ffe550" style="fill:var(--color1,#ffe550)" d="M15.42 1.038c.584-1.384 2.576-1.384 3.16 0L22.028 9.2c.246.582.804.98 1.444 1.032l8.952.706c1.516.12 2.132 1.982.976 2.958l-6.82 5.752a1.666 1.666 0 0 0-.55 1.682l-.002-.011 2.084 8.6c.352 1.456-1.258 2.608-2.556 1.828l-7.664-4.61a1.734 1.734 0 0 0-1.792.004l.008-.004-7.664 4.61c-1.3.78-2.908-.372-2.556-1.828l2.084-8.6a1.663 1.663 0 0 0-.55-1.667l-.003-.002-6.82-5.75c-1.156-.976-.54-2.84.976-2.96l8.952-.704a1.714 1.714 0 0 0 1.44-1.021l.004-.011 3.448-8.164zm42 0c.584-1.384 2.576-1.384 3.16 0L64.028 9.2c.246.582.804.98 1.444 1.032l8.952.706c1.516.12 2.132 1.982.976 2.958l-6.82 5.752a1.666 1.666 0 0 0-.55 1.682l-.002-.011 2.084 8.6c.352 1.456-1.258 2.608-2.556 1.828l-7.664-4.61a1.734 1.734 0 0 0-1.792.004l.008-.004-7.664 4.61c-1.3.78-2.908-.372-2.556-1.828l2.084-8.6a1.663 1.663 0 0 0-.55-1.668l-.003-.002-6.82-5.75c-1.156-.976-.54-2.84.976-2.96l8.952-.704a1.714 1.714 0 0 0 1.44-1.021l.004-.011 3.448-8.164zm42 0c.584-1.384 2.576-1.384 3.16 0l3.448 8.162c.246.582.804.98 1.444 1.032l8.952.706c1.516.12 2.132 1.982.976 2.958l-6.82 5.752a1.666 1.666 0 0 0-.55 1.682l-.002-.011 2.084 8.6c.352 1.456-1.258 2.608-2.556 1.828l-7.664-4.61a1.734 1.734 0 0 0-1.792.004l.008-.004-7.664 4.61c-1.3.78-2.908-.372-2.556-1.828l2.084-8.6a1.665 1.665 0 0 0-.547-1.668l-.003-.002-6.822-5.75c-1.158-.976-.542-2.84.974-2.96l8.952-.704a1.714 1.714 0 0 0 1.44-1.021l.004-.011 3.45-8.164zm42 0c.584-1.384 2.576-1.384 3.16 0l3.448 8.162c.248.582.804.98 1.444 1.032l8.952.706c1.516.12 2.132 1.982.976 2.958l-6.82 5.752a1.666 1.666 0 0 0-.55 1.682l-.002-.011 2.084 8.6c.352 1.456-1.258 2.608-2.556 1.828l-7.664-4.61a1.734 1.734 0 0 0-1.792.004l.008-.004-7.664 4.61c-1.3.78-2.908-.372-2.556-1.828l2.084-8.6a1.666 1.666 0 0 0-.55-1.668l-.003-.002-6.82-5.75c-1.156-.976-.54-2.84.976-2.96l8.952-.704a1.714 1.714 0 0 0 1.44-1.021l.004-.011 3.448-8.164zm42 0c.584-1.384 2.576-1.384 3.16 0l3.448 8.162c.248.582.804.98 1.444 1.032l8.952.706c1.516.12 2.132 1.982.976 2.958l-6.82 5.752a1.666 1.666 0 0 0-.55 1.682l-.002-.011 2.084 8.6c.352 1.456-1.258 2.608-2.556 1.828l-7.664-4.61a1.734 1.734 0 0 0-1.792.004l.008-.004-7.664 4.61c-1.3.78-2.908-.372-2.556-1.828l2.084-8.6a1.666 1.666 0 0 0-.55-1.668l-.003-.002-6.82-5.75c-1.156-.976-.54-2.84.976-2.96l8.952-.704a1.714 1.714 0 0 0 1.44-1.021l.004-.011 3.448-8.164z"/></symbol></defs></svg>