<svg xmlns="http://www.w3.org/2000/svg" width="56" height="48" fill="none"><g filter="url(#a)"><rect width="40" height="48" x="4" y="40" fill="#fff" rx="8" transform="rotate(-90 4 40)"/><path fill="#2C2C2C" d="M17.45 20.905 31.383 34.18a1.25 1.25 0 0 0 1.725 0l.015-.015a1.15 1.15 0 0 0 0-1.667l-13.12-12.5 13.12-12.495a1.15 1.15 0 0 0 0-1.668l-.015-.015a1.25 1.25 0 0 0-1.725 0L17.45 19.095a1.251 1.251 0 0 0 0 1.81Z"/></g><defs><filter id="a" width="56" height="48" x="0" y="0" color-interpolation-filters="sRGB" filterUnits="userSpaceOnUse"><feFlood flood-opacity="0" result="BackgroundImageFix"/><feColorMatrix in="SourceAlpha" result="hardAlpha" values="0 0 0 0 0 0 0 0 0 0 0 0 0 0 0 0 0 0 127 0"/><feOffset dy="4"/><feGaussianBlur stdDeviation="2"/><feComposite in2="hardAlpha" operator="out"/><feColorMatrix values="0 0 0 0 0 0 0 0 0 0 0 0 0 0 0 0 0 0 0.06 0"/><feBlend in2="BackgroundImageFix" result="effect1_dropShadow_480_6544"/><feBlend in="SourceGraphic" in2="effect1_dropShadow_480_6544" result="shape"/></filter></defs></svg>