<svg xmlns="http://www.w3.org/2000/svg" version="1.1" xmlns:xlink="http://www.w3.org/1999/xlink" xmlns:svgjs="http://svgjs.com/svgjs" width="192" height="192"><svg width="192" height="192" viewBox="0 0 192 192" fill="none" xmlns="http://www.w3.org/2000/svg">
<path d="M81.3413 38.7336C87.4116 26.839 104.381 26.839 110.452 38.7337L118.136 53.7913C120.513 58.4495 124.97 61.6894 130.128 62.5097L146.779 65.158C159.969 67.2557 165.218 83.4517 155.773 92.9087L143.891 104.806C140.191 108.51 138.485 113.765 139.301 118.941L141.925 135.576C144.008 148.778 130.274 158.782 118.377 152.73L103.299 145.059C98.6467 142.693 93.1463 142.693 88.4943 145.059L73.4161 152.73C61.5191 158.782 47.7854 148.778 49.8677 135.576L52.4916 118.941C53.308 113.765 51.6018 108.51 47.902 104.806L36.0203 92.9087C26.5754 83.4517 31.8241 67.2557 45.0135 65.158L61.6652 62.5097C66.8234 61.6894 71.2797 58.4495 73.6569 53.7913L81.3413 38.7336Z" fill="#FFE550"></path>
<path fill-rule="evenodd" clip-rule="evenodd" d="M96 192C149.019 192 192 149.019 192 96C192 42.9807 149.019 0 96 0C42.9807 0 0 42.9807 0 96C0 149.019 42.9807 192 96 192ZM96 181.767C143.393 181.767 181.783 143.352 181.783 96C181.783 48.6482 143.393 10.2334 96 10.2334C48.6073 10.2334 10.2166 48.6482 10.2166 96C10.2166 143.352 48.6073 181.767 96 181.767Z" fill="#BBF330"></path>
</svg><style>@media (prefers-color-scheme: light) { :root { filter: none; } }
@media (prefers-color-scheme: dark) { :root { filter: none; } }
</style></svg>